<?xml version="1.0" encoding="utf-8"?><svg xmlns="http://www.w3.org/2000/svg" xmlns:xlink="http://www.w3.org/1999/xlink"><symbol viewBox="0 0 454.522 454.522" id="arrow-left" xmlns="http://www.w3.org/2000/svg"><path d="M248.299 399.167c12.354 12.354 12.354 32.391 0 44.744-12.354 12.365-32.391 12.365-44.75 0L9.259 249.63C3.085 243.453 0 235.355 0 227.258c0-8.095 3.091-16.192 9.259-22.366l194.29-194.284c12.359-12.359 32.396-12.359 44.75 0 12.354 12.354 12.354 32.388 0 44.748L76.391 227.258l171.908 171.909zm25.05-171.909L445.258 55.355c12.354-12.359 12.354-32.394 0-44.748-12.354-12.359-32.392-12.359-44.751 0L206.218 204.892c-6.174 6.18-9.26 14.271-9.26 22.366a31.57 31.57 0 0 0 9.26 22.372l194.289 194.281c12.359 12.365 32.397 12.365 44.751 0 12.354-12.354 12.354-32.391 0-44.744L273.349 227.258z"/></symbol><symbol viewBox="0 0 611.979 611.979" id="danger" xmlns="http://www.w3.org/2000/svg"><path d="M356.781 305.982L601.453 61.311c14.033-14.033 14.033-36.771 0-50.774-14.004-14.033-36.741-14.033-50.774 0L306.007 255.208 61.277 10.536c-14.004-14.033-36.771-14.033-50.774 0-14.004 14.004-14.004 36.742 0 50.774l244.701 244.672L10.503 550.684c-14.004 14.004-14.004 36.771 0 50.774 7.016 7.017 16.216 10.51 25.387 10.51 9.2 0 18.371-3.493 25.387-10.51l244.701-244.701 244.671 244.701c7.017 7.017 16.217 10.51 25.388 10.51 9.199 0 18.399-3.493 25.387-10.51 14.033-14.033 14.033-36.771 0-50.774L356.781 305.982z"/></symbol><symbol viewBox="0 0 442.533 442.533" id="logo-symbol" xmlns="http://www.w3.org/2000/svg"><path d="M434.539 98.499l-38.828-38.828c-5.324-5.328-11.799-7.993-19.41-7.993-7.618 0-14.093 2.665-19.417 7.993L169.59 247.248l-83.939-84.225c-5.33-5.33-11.801-7.992-19.412-7.992-7.616 0-14.087 2.662-19.417 7.992L7.994 201.852C2.664 207.181 0 213.654 0 221.269c0 7.609 2.664 14.088 7.994 19.416l103.351 103.349 38.831 38.828c5.327 5.332 11.8 7.994 19.414 7.994 7.611 0 14.084-2.669 19.414-7.994l38.83-38.828L434.539 137.33c5.325-5.33 7.994-11.802 7.994-19.417.004-7.611-2.669-14.084-7.994-19.414z"/></symbol><symbol viewBox="0 0 516.727 516.727" id="spinner-circle" xmlns="http://www.w3.org/2000/svg"><path d="M516.727 266.696c-.665-34.825-8.221-69.54-22.175-101.283-13.908-31.771-34.094-60.551-58.876-84.333-24.767-23.8-54.139-42.615-85.929-55.027-31.773-12.46-65.937-18.412-99.687-17.69-33.755.668-67.36 8.007-98.091 21.539C121.215 43.39 93.354 62.96 70.337 86.973c-23.033 24.001-41.229 52.452-53.222 83.229C5.077 200.962-.66 234.013.06 266.696c.67 32.688 7.793 65.182 20.903 94.899 13.067 29.738 32.019 56.681 55.266 78.931 23.234 22.268 50.766 39.846 80.528 51.417 29.749 11.616 61.69 17.136 93.303 16.419 31.62-.671 63.001-7.58 91.707-20.268 28.724-12.646 54.747-30.979 76.231-53.461 21.503-22.469 38.461-49.08 49.611-77.827 6.79-17.427 11.396-35.624 13.824-54.062a34.4 34.4 0 0 0 1.96.063c18.409 0 33.333-14.923 33.333-33.333 0-.936-.049-1.861-.124-2.777l.125-.001zm-52.965 88.514c-12.226 27.71-29.94 52.812-51.655 73.532-21.703 20.732-47.396 37.076-75.127 47.807-27.724 10.77-57.443 15.859-86.919 15.146-29.481-.677-58.644-7.154-85.323-18.997-26.692-11.806-50.877-28.901-70.83-49.849-19.968-20.938-35.691-45.711-46.001-72.427-10.349-26.712-15.223-55.321-14.512-83.728.678-28.413 6.941-56.465 18.361-82.131 11.384-25.677 27.863-48.943 48.045-68.13 20.172-19.202 44.026-34.307 69.726-44.195 25.697-9.928 53.195-14.587 80.534-13.877 27.343.68 54.286 6.728 78.939 17.726 24.662 10.963 47.008 26.824 65.429 46.241 18.436 19.405 32.922 42.341 42.391 67.025 9.504 24.684 13.948 51.072 13.241 77.342h.125a33.543 33.543 0 0 0-.125 2.777c0 17.193 13.018 31.34 29.732 33.137-3.242 18.138-8.609 35.844-16.031 52.601z"/></symbol><symbol viewBox="0 0 426.667 426.667" id="success" xmlns="http://www.w3.org/2000/svg"><path d="M421.876 56.307c-6.548-6.78-17.352-6.968-24.132-.42-.142.137-.282.277-.42.42L119.257 334.375l-90.334-90.334c-6.78-6.548-17.584-6.36-24.132.42-6.388 6.614-6.388 17.099 0 23.713l102.4 102.4c6.665 6.663 17.468 6.663 24.132 0L421.456 80.44c6.78-6.549 6.968-17.353.42-24.133z"/></symbol></svg>