<?xml version="1.0" encoding="utf-8"?><svg xmlns="http://www.w3.org/2000/svg" xmlns:xlink="http://www.w3.org/1999/xlink"><symbol viewBox="0 0 611.979 611.979" id="danger" xmlns="http://www.w3.org/2000/svg"><path d="M356.781 305.982L601.453 61.311c14.033-14.033 14.033-36.771 0-50.774-14.004-14.033-36.741-14.033-50.774 0L306.007 255.208 61.277 10.536c-14.004-14.033-36.771-14.033-50.774 0-14.004 14.004-14.004 36.742 0 50.774l244.701 244.672L10.503 550.684c-14.004 14.004-14.004 36.771 0 50.774 7.016 7.017 16.216 10.51 25.387 10.51 9.2 0 18.371-3.493 25.387-10.51l244.701-244.701 244.671 244.701c7.017 7.017 16.217 10.51 25.388 10.51 9.199 0 18.399-3.493 25.387-10.51 14.033-14.033 14.033-36.771 0-50.774L356.781 305.982z"/></symbol><symbol viewBox="0 0 442.533 442.533" id="logo-symbol" xmlns="http://www.w3.org/2000/svg"><path d="M434.539 98.499l-38.828-38.828c-5.324-5.328-11.799-7.993-19.41-7.993-7.618 0-14.093 2.665-19.417 7.993L169.59 247.248l-83.939-84.225c-5.33-5.33-11.801-7.992-19.412-7.992-7.616 0-14.087 2.662-19.417 7.992L7.994 201.852C2.664 207.181 0 213.654 0 221.269c0 7.609 2.664 14.088 7.994 19.416l103.351 103.349 38.831 38.828c5.327 5.332 11.8 7.994 19.414 7.994 7.611 0 14.084-2.669 19.414-7.994l38.83-38.828L434.539 137.33c5.325-5.33 7.994-11.802 7.994-19.417.004-7.611-2.669-14.084-7.994-19.414z"/></symbol><symbol viewBox="0 0 426.667 426.667" id="success" xmlns="http://www.w3.org/2000/svg"><path d="M421.876 56.307c-6.548-6.78-17.352-6.968-24.132-.42-.142.137-.282.277-.42.42L119.257 334.375l-90.334-90.334c-6.78-6.548-17.584-6.36-24.132.42-6.388 6.614-6.388 17.099 0 23.713l102.4 102.4c6.665 6.663 17.468 6.663 24.132 0L421.456 80.44c6.78-6.549 6.968-17.353.42-24.133z"/></symbol></svg>