<?xml version="1.0" encoding="utf-8"?><svg xmlns="http://www.w3.org/2000/svg" xmlns:xlink="http://www.w3.org/1999/xlink"><symbol viewBox="0 0 204.227 204.227" id="add-card" xmlns="http://www.w3.org/2000/svg"><path d="M191.716 184.198H12.51c-6.898 0-12.51-5.612-12.51-12.51v-56.772c0-6.898 5.612-12.51 12.51-12.51h129.892l41.911-80.759a3.001 3.001 0 0 1 4.045-1.281l10.901 5.657a3 3 0 0 1 1.282 4.045L163 102.406h28.716c6.898 0 12.511 5.612 12.511 12.51v56.772c0 6.898-5.613 12.51-12.511 12.51zM12.51 108.406c-3.59 0-6.51 2.92-6.51 6.51v56.772c0 3.59 2.92 6.51 6.51 6.51h179.206c3.59 0 6.511-2.92 6.511-6.51v-56.772a6.518 6.518 0 0 0-6.511-6.51h-31.802l-13.666 26.332a3.02 3.02 0 0 1-.544.916L128.4 155.618a3 3 0 0 1-5.178-2.687l6.315-25.444a2.99 2.99 0 0 1 .289-.847l9.463-18.233H12.51zm121.98 24.034l-2.432 9.798 6.611-7.629-4.179-2.169zm4.981-4.19l2.645 1.373 51.718-99.656-5.575-2.894-41.188 79.366a3.342 3.342 0 0 1-.153.348l-10.354 19.953 2.907 1.51zm-58.128 34.632H23.041a3 3 0 1 1 0-6h58.302a3 3 0 1 1 0 6zm0-17.036H23.041a3 3 0 1 1 0-6h58.302a3 3 0 1 1 0 6zm0-17.034H23.041a3 3 0 1 1 0-6h58.302a3 3 0 1 1 0 6z"/></symbol><symbol viewBox="0 0 512.16 512.16" id="credit-card" xmlns="http://www.w3.org/2000/svg"><path d="M273.067 337.147H409.6c5.12 0 8.533-3.413 8.533-8.533v-76.8c0-5.12-3.413-8.533-8.533-8.533H273.067c-5.12 0-8.533 3.413-8.533 8.533v76.8c-.001 5.119 3.413 8.533 8.533 8.533zm8.533-76.8h119.467v59.733H281.6v-59.733zM42.667 226.213h68.267c5.12 0 8.533-3.413 8.533-8.533s-3.413-8.533-8.533-8.533H42.667c-5.12 0-8.533 3.413-8.533 8.533s3.413 8.533 8.533 8.533zm102.4 0h68.267c5.12 0 8.533-3.413 8.533-8.533s-3.413-8.533-8.533-8.533h-68.267c-5.12 0-8.533 3.413-8.533 8.533s3.413 8.533 8.533 8.533zm-102.4 34.134H153.6c5.12 0 8.533-3.413 8.533-8.533s-3.413-8.533-8.533-8.533H42.667c-5.12 0-8.533 3.413-8.533 8.533s3.413 8.533 8.533 8.533zm170.666-17.067h-25.6c-5.12 0-8.533 3.413-8.533 8.533s3.413 8.533 8.533 8.533h25.6c5.12 0 8.533-3.413 8.533-8.533s-3.413-8.533-8.533-8.533z"/><path d="M504.32 137.467c-5.973-7.68-13.653-11.947-23.04-12.8l-20.48-2.482V81.147c0-18.773-15.36-34.133-34.133-34.133H34.133C15.36 47.013 0 62.373 0 81.147v273.067c0 15.413 10.357 28.518 24.453 32.718-.43 17.262 12.631 32.248 30.161 33.842l394.24 44.373h3.413c17.067 0 32.427-12.8 34.133-29.013l25.6-273.92c.853-8.534-1.707-17.921-7.68-24.747zm-487.253-30.72h426.667v51.2H17.067v-51.2zM34.133 64.08h392.533c9.387 0 17.067 7.68 17.067 17.067v8.533H17.067v-8.533c0-9.387 7.68-17.067 17.066-17.067zM17.067 354.213v-179.2h426.667v179.2c0 9.387-7.68 17.067-17.067 17.067H34.134c-9.387 0-17.067-7.68-17.067-17.067zM494.933 158.8l-25.6 273.92c-.853 9.387-9.387 16.213-18.773 15.36L57.173 403.707c-8.533-.853-14.507-7.68-15.36-15.36h384.853c18.773 0 34.133-15.36 34.133-34.133V138.32l19.627 1.707c4.267 0 8.533 2.56 11.093 5.973 2.561 3.413 4.268 8.533 3.414 12.8z"/></symbol><symbol viewBox="0 0 442.533 442.533" id="logo-symbol" xmlns="http://www.w3.org/2000/svg"><path d="M434.539 98.499l-38.828-38.828c-5.324-5.328-11.799-7.993-19.41-7.993-7.618 0-14.093 2.665-19.417 7.993L169.59 247.248l-83.939-84.225c-5.33-5.33-11.801-7.992-19.412-7.992-7.616 0-14.087 2.662-19.417 7.992L7.994 201.852C2.664 207.181 0 213.654 0 221.269c0 7.609 2.664 14.088 7.994 19.416l103.351 103.349 38.831 38.828c5.327 5.332 11.8 7.994 19.414 7.994 7.611 0 14.084-2.669 19.414-7.994l38.83-38.828L434.539 137.33c5.325-5.33 7.994-11.802 7.994-19.417.004-7.611-2.669-14.084-7.994-19.414z"/></symbol><symbol viewBox="0 0 490.24 490.24" id="transaction" xmlns="http://www.w3.org/2000/svg"><path d="M259.367 182.89v160.498h-17.408c-10.19 0-17.969 4.075-21.339 11.181-3.371 7.106-1.606 15.708 4.84 23.601l57.354 70.21c5.78 7.073 13.995 11.131 22.54 11.131 8.544 0 16.76-4.057 22.541-11.132l57.353-70.209c6.447-7.894 8.211-16.495 4.84-23.601-3.371-7.105-11.148-11.181-21.338-11.181h-17.409V182.892c0-11.631-9.462-21.094-21.093-21.094H280.46c-11.631 0-21.093 9.462-21.093 21.092zm-18.063 181.498h28.563c5.799 0 10.5-4.701 10.5-10.5V182.89c0-.051.042-.092.093-.092h49.787c.052 0 .093.041.093.094v170.996c0 5.799 4.701 10.5 10.5 10.5l28.67-.01-57.879 70.714c-1.801 2.204-4.031 3.418-6.278 3.418s-4.477-1.214-6.277-3.417l-57.772-70.705z"/><path d="M121.49 146.853h17.409V307.35c0 11.631 9.462 21.093 21.093 21.093h49.787c11.631 0 21.093-9.462 21.093-21.092V146.853h17.408c10.19 0 17.969-4.075 21.339-11.181 3.371-7.107 1.606-15.708-4.84-23.601l-57.354-70.21c-5.78-7.073-13.995-11.131-22.54-11.131-8.544 0-16.76 4.057-22.541 11.132l-57.352 70.209c-6.447 7.894-8.212 16.495-4.841 23.602 3.372 7.104 11.149 11.18 21.339 11.18zm-.639-21l57.758-70.704c1.801-2.204 4.031-3.418 6.278-3.418s4.477 1.214 6.277 3.417l57.766 70.705h-28.556c-5.799 0-10.5 4.701-10.5 10.5v170.998a.093.093 0 0 1-.093.092h-49.787a.092.092 0 0 1-.093-.093V136.353c0-5.799-4.701-10.5-10.5-10.5h-28.55z"/><path d="M418.049 0H72.191c-5.799 0-10.5 4.701-10.5 10.5v469.24c0 5.799 4.701 10.5 10.5 10.5h345.858c5.799 0 10.5-4.701 10.5-10.5V10.5c0-5.799-4.701-10.5-10.5-10.5zm-10.5 469.24H82.691V21h324.858v448.24z"/></symbol></svg>