<?xml version="1.0" encoding="utf-8"?><svg xmlns="http://www.w3.org/2000/svg" xmlns:xlink="http://www.w3.org/1999/xlink"><symbol viewBox="0 0 454.522 454.522" id="arrow-left" xmlns="http://www.w3.org/2000/svg"><path d="M248.299 399.167c12.354 12.354 12.354 32.391 0 44.744-12.354 12.365-32.391 12.365-44.75 0L9.259 249.63C3.085 243.453 0 235.355 0 227.258c0-8.095 3.091-16.192 9.259-22.366l194.29-194.284c12.359-12.359 32.396-12.359 44.75 0 12.354 12.354 12.354 32.388 0 44.748L76.391 227.258l171.908 171.909zm25.05-171.909L445.258 55.355c12.354-12.359 12.354-32.394 0-44.748-12.354-12.359-32.392-12.359-44.751 0L206.218 204.892c-6.174 6.18-9.26 14.271-9.26 22.366a31.57 31.57 0 0 0 9.26 22.372l194.289 194.281c12.359 12.365 32.397 12.365 44.751 0 12.354-12.354 12.354-32.391 0-44.744L273.349 227.258z"/></symbol><symbol viewBox="0 0 611.979 611.979" id="danger" xmlns="http://www.w3.org/2000/svg"><path d="M356.781 305.982L601.453 61.311c14.033-14.033 14.033-36.771 0-50.774-14.004-14.033-36.741-14.033-50.774 0L306.007 255.208 61.277 10.536c-14.004-14.033-36.771-14.033-50.774 0-14.004 14.004-14.004 36.742 0 50.774l244.701 244.672L10.503 550.684c-14.004 14.004-14.004 36.771 0 50.774 7.016 7.017 16.216 10.51 25.387 10.51 9.2 0 18.371-3.493 25.387-10.51l244.701-244.701 244.671 244.701c7.017 7.017 16.217 10.51 25.388 10.51 9.199 0 18.399-3.493 25.387-10.51 14.033-14.033 14.033-36.771 0-50.774L356.781 305.982z"/></symbol><symbol viewBox="0 0 408 408" id="dots" xmlns="http://www.w3.org/2000/svg"><path d="M51 153c-28.05 0-51 22.95-51 51s22.95 51 51 51 51-22.95 51-51-22.95-51-51-51zm306 0c-28.05 0-51 22.95-51 51s22.95 51 51 51 51-22.95 51-51-22.95-51-51-51zm-153 0c-28.05 0-51 22.95-51 51s22.95 51 51 51 51-22.95 51-51-22.95-51-51-51z"/></symbol><symbol viewBox="0 0 512 512" id="euro" xmlns="http://www.w3.org/2000/svg"><path d="M256 0C114.848 0 0 114.848 0 256s114.848 256 256 256 256-114.848 256-256S397.152 0 256 0zm0 480C132.48 480 32 379.52 32 256S132.48 32 256 32s224 100.48 224 224-100.48 224-224 224z"/><path d="M310.976 339.744C299.072 347.872 285.952 352 272 352c-29.472 0-55.008-19.456-68.864-48H256c8.832 0 16-7.168 16-16s-7.168-16-16-16h-62.656c-.736-5.216-1.344-10.528-1.344-16s.608-10.784 1.344-16H272c8.832 0 16-7.168 16-16s-7.168-16-16-16h-68.864c13.856-28.544 39.392-48 68.864-48 13.952 0 27.072 4.128 38.976 12.256 7.296 4.96 17.28 3.136 22.24-4.192 4.992-7.296 3.104-17.248-4.192-22.24C311.936 134.176 292.224 128 272 128c-46.88 0-87.008 33.184-103.68 80H144c-8.832 0-16 7.168-16 16s7.168 16 16 16h17.408c-.576 5.312-1.408 10.528-1.408 16s.832 10.688 1.408 16H144c-8.832 0-16 7.168-16 16s7.168 16 16 16h24.32c16.672 46.816 56.8 80 103.68 80 20.224 0 39.936-6.176 57.024-17.824 7.296-4.992 9.184-14.944 4.192-22.24-4.96-7.296-14.944-9.152-22.24-4.192z"/></symbol><symbol viewBox="0 0 442.533 442.533" id="logo-symbol" xmlns="http://www.w3.org/2000/svg"><path d="M434.539 98.499l-38.828-38.828c-5.324-5.328-11.799-7.993-19.41-7.993-7.618 0-14.093 2.665-19.417 7.993L169.59 247.248l-83.939-84.225c-5.33-5.33-11.801-7.992-19.412-7.992-7.616 0-14.087 2.662-19.417 7.992L7.994 201.852C2.664 207.181 0 213.654 0 221.269c0 7.609 2.664 14.088 7.994 19.416l103.351 103.349 38.831 38.828c5.327 5.332 11.8 7.994 19.414 7.994 7.611 0 14.084-2.669 19.414-7.994l38.83-38.828L434.539 137.33c5.325-5.33 7.994-11.802 7.994-19.417.004-7.611-2.669-14.084-7.994-19.414z"/></symbol><symbol viewBox="0 0 512 512" id="logout" xmlns="http://www.w3.org/2000/svg"><path d="M255.15 468.625H63.787c-11.737 0-21.262-9.526-21.262-21.262V64.638c0-11.737 9.526-21.262 21.262-21.262H255.15c11.758 0 21.262-9.504 21.262-21.262S266.908.85 255.15.85H63.787C28.619.85 0 29.47 0 64.638v382.724c0 35.168 28.619 63.787 63.787 63.787H255.15c11.758 0 21.262-9.504 21.262-21.262 0-11.758-9.504-21.262-21.262-21.262z"/><path d="M505.664 240.861L376.388 113.286c-8.335-8.25-21.815-8.143-30.065.213s-8.165 21.815.213 30.065l92.385 91.173H191.362c-11.758 0-21.262 9.504-21.262 21.262 0 11.758 9.504 21.263 21.262 21.263h247.559l-92.385 91.173c-8.377 8.25-8.441 21.709-.213 30.065a21.255 21.255 0 0 0 15.139 6.336c5.401 0 10.801-2.041 14.926-6.124l129.276-127.575A21.303 21.303 0 0 0 512 255.998c0-5.696-2.275-11.118-6.336-15.137z"/></symbol><symbol viewBox="0 0 511.272 511.272" id="rub" xmlns="http://www.w3.org/2000/svg"><path d="M453.374 151.306l28.272-14.96a257.842 257.842 0 0 0-17.888-28.992l-26.064 18.576a223.472 223.472 0 0 1 15.68 25.376zm-34.576-48.464l23.344-21.872a261.243 261.243 0 0 0-24.88-23.28l-20.288 24.752a228.51 228.51 0 0 1 21.824 20.4z"/><path d="M495.582 167.514h-.032l-30.016 11.024c42.755 116.164-16.756 244.994-132.92 287.748C216.45 509.04 87.62 449.53 44.866 333.365S61.622 88.372 177.786 45.617a224.131 224.131 0 0 1 194.948 19.496l16.816-27.2C269.306-36.036 111.88 1.494 37.931 121.739s-36.419 277.67 83.826 351.619 277.67 36.419 351.619-83.826c41.019-66.697 49.202-148.517 22.206-222.018z"/><path d="M319.198 255.85c35.346 0 64-28.654 64-64 0-35.346-28.654-64-64-64h-112v96h-64v32h64v32h-64v32h64v64h32v-64h64v-32h-64v-32h80zm-80-96h80c17.673 0 32 14.327 32 32s-14.327 32-32 32h-80v-64z"/></symbol><symbol viewBox="0 0 516.727 516.727" id="spinner-circle" xmlns="http://www.w3.org/2000/svg"><path d="M516.727 266.696c-.665-34.825-8.221-69.54-22.175-101.283-13.908-31.771-34.094-60.551-58.876-84.333-24.767-23.8-54.139-42.615-85.929-55.027-31.773-12.46-65.937-18.412-99.687-17.69-33.755.668-67.36 8.007-98.091 21.539C121.215 43.39 93.354 62.96 70.337 86.973c-23.033 24.001-41.229 52.452-53.222 83.229C5.077 200.962-.66 234.013.06 266.696c.67 32.688 7.793 65.182 20.903 94.899 13.067 29.738 32.019 56.681 55.266 78.931 23.234 22.268 50.766 39.846 80.528 51.417 29.749 11.616 61.69 17.136 93.303 16.419 31.62-.671 63.001-7.58 91.707-20.268 28.724-12.646 54.747-30.979 76.231-53.461 21.503-22.469 38.461-49.08 49.611-77.827 6.79-17.427 11.396-35.624 13.824-54.062a34.4 34.4 0 0 0 1.96.063c18.409 0 33.333-14.923 33.333-33.333 0-.936-.049-1.861-.124-2.777l.125-.001zm-52.965 88.514c-12.226 27.71-29.94 52.812-51.655 73.532-21.703 20.732-47.396 37.076-75.127 47.807-27.724 10.77-57.443 15.859-86.919 15.146-29.481-.677-58.644-7.154-85.323-18.997-26.692-11.806-50.877-28.901-70.83-49.849-19.968-20.938-35.691-45.711-46.001-72.427-10.349-26.712-15.223-55.321-14.512-83.728.678-28.413 6.941-56.465 18.361-82.131 11.384-25.677 27.863-48.943 48.045-68.13 20.172-19.202 44.026-34.307 69.726-44.195 25.697-9.928 53.195-14.587 80.534-13.877 27.343.68 54.286 6.728 78.939 17.726 24.662 10.963 47.008 26.824 65.429 46.241 18.436 19.405 32.922 42.341 42.391 67.025 9.504 24.684 13.948 51.072 13.241 77.342h.125a33.543 33.543 0 0 0-.125 2.777c0 17.193 13.018 31.34 29.732 33.137-3.242 18.138-8.609 35.844-16.031 52.601z"/></symbol><symbol viewBox="0 0 426.667 426.667" id="success" xmlns="http://www.w3.org/2000/svg"><path d="M421.876 56.307c-6.548-6.78-17.352-6.968-24.132-.42-.142.137-.282.277-.42.42L119.257 334.375l-90.334-90.334c-6.78-6.548-17.584-6.36-24.132.42-6.388 6.614-6.388 17.099 0 23.713l102.4 102.4c6.665 6.663 17.468 6.663 24.132 0L421.456 80.44c6.78-6.549 6.968-17.353.42-24.133z"/></symbol><symbol viewBox="0 0 220 220" id="uah" xmlns="http://www.w3.org/2000/svg"><path d="M110 0C49.346 0 0 49.346 0 110s49.346 110 110 110 110-49.346 110-110S170.654 0 110 0zm0 210c-55.141 0-100-44.86-100-100S54.859 10 110 10s100 44.86 100 100-44.859 100-100 100z"/><path d="M110 19.5c-49.902 0-90.5 40.598-90.5 90.5s40.598 90.5 90.5 90.5 90.5-40.598 90.5-90.5-40.598-90.5-90.5-90.5zm0 178c-48.248 0-87.5-39.252-87.5-87.5S61.752 22.5 110 22.5s87.5 39.252 87.5 87.5-39.252 87.5-87.5 87.5z"/><path d="M99.383 112.131h16.971l4.262-4.261h-16.971zM110 154c-.328 0-.653-.008-.982-.025-5.756-.292-10.452-3.739-12.562-9.222-1.71-4.441-1.729-10.995 3.341-16.065l4.688-4.687H88.157c-5.043 7.266-6.202 16.482-2.9 25.063 3.807 9.891 12.679 16.366 23.147 16.896.528.027 1.061.041 1.596.041 17.094 0 31-13.907 31-31h-12c0 10.476-8.523 18.999-19 18.999zm0-88c.328 0 .653.008.982.025 5.756.292 10.452 3.739 12.562 9.222 1.71 4.441 1.729 10.995-3.341 16.065L115.515 96h16.328c5.043-7.266 6.203-16.482 2.9-25.063-3.807-9.891-12.679-16.366-23.147-16.896A31.304 31.304 0 0 0 110 54c-17.094 0-31 13.907-31 31h12c0-10.477 8.523-19 19-19zm-28.5 48.131h57V122h-57zM81.5 98h57v7.869h-57z"/></symbol><symbol viewBox="0 0 368 368" id="usd" xmlns="http://www.w3.org/2000/svg"><path d="M184 0C82.544 0 0 82.544 0 184s82.544 184 184 184c101.464 0 184-82.544 184-184S285.464 0 184 0zm0 352c-92.64 0-168-75.36-168-168S91.36 16 184 16c92.632 0 168 75.36 168 168s-75.368 168-168 168z"/><path d="M248 144c4.424 0 8-3.584 8-8v-16c0-13.232-10.768-24-24-24h-40V72c0-4.416-3.584-8-8-8s-8 3.584-8 8v24h-40c-13.232 0-24 10.768-24 24v48c0 13.232 10.768 24 24 24h40v64h-40c-4.408 0-8-3.592-8-8v-16c0-4.416-3.584-8-8-8s-8 3.584-8 8v16c0 13.232 10.768 24 24 24h40v24c0 4.416 3.584 8 8 8s8-3.584 8-8v-24h40c13.232 0 24-10.768 24-24v-48c0-13.232-10.768-24-24-24h-40v-64h40c4.416 0 8 3.592 8 8v16c0 4.416 3.576 8 8 8zm-72 32h-40c-4.408 0-8-3.592-8-8v-48c0-4.408 3.592-8 8-8h40v64zm56 16c4.416 0 8 3.592 8 8v48c0 4.408-3.584 8-8 8h-40v-64h40z"/></symbol><symbol viewBox="0 0 486.463 486.463" id="warning" xmlns="http://www.w3.org/2000/svg"><path d="M243.225 333.382c-13.6 0-25 11.4-25 25s11.4 25 25 25c13.1 0 25-11.4 24.4-24.4.6-14.3-10.7-25.6-24.4-25.6z"/><path d="M474.625 421.982c15.7-27.1 15.8-59.4.2-86.4l-156.6-271.2c-15.5-27.3-43.5-43.5-74.9-43.5s-59.4 16.3-74.9 43.4l-156.8 271.5c-15.6 27.3-15.5 59.8.3 86.9 15.6 26.8 43.5 42.9 74.7 42.9h312.8c31.3 0 59.4-16.3 75.2-43.6zm-34-19.6c-8.7 15-24.1 23.9-41.3 23.9h-312.8c-17 0-32.3-8.7-40.8-23.4-8.6-14.9-8.7-32.7-.1-47.7l156.8-271.4c8.5-14.9 23.7-23.7 40.9-23.7 17.1 0 32.4 8.9 40.9 23.8l156.7 271.4c8.4 14.6 8.3 32.2-.3 47.1z"/><path d="M237.025 157.882c-11.9 3.4-19.3 14.2-19.3 27.3.6 7.9 1.1 15.9 1.7 23.8 1.7 30.1 3.4 59.6 5.1 89.7.6 10.2 8.5 17.6 18.7 17.6s18.2-7.9 18.7-18.2c0-6.2 0-11.9.6-18.2 1.1-19.3 2.3-38.6 3.4-57.9.6-12.5 1.7-25 2.3-37.5 0-4.5-.6-8.5-2.3-12.5-5.1-11.2-17-16.9-28.9-14.1z"/></symbol></svg>