<?xml version="1.0" encoding="iso-8859-1"?>
<!-- Generator: Adobe Illustrator 17.1.0, SVG Export Plug-In . SVG Version: 6.00 Build 0)  -->
<!DOCTYPE svg PUBLIC "-//W3C//DTD SVG 1.1//EN" "http://www.w3.org/Graphics/SVG/1.1/DTD/svg11.dtd">
<svg version="1.1" id="Capa_1" xmlns="http://www.w3.org/2000/svg" xmlns:xlink="http://www.w3.org/1999/xlink" x="0px" y="0px"
	 viewBox="0 0 204.227 204.227" style="enable-background:new 0 0 204.227 204.227;" xml:space="preserve">
<path d="M191.716,184.198H12.51c-6.898,0-12.51-5.612-12.51-12.51v-56.772c0-6.898,5.612-12.51,12.51-12.51h129.892l41.911-80.759
	c0.764-1.469,2.574-2.045,4.045-1.281l10.901,5.657c0.706,0.366,1.238,0.999,1.479,1.757s0.169,1.582-0.197,2.288L163,102.406
	h28.716c6.898,0,12.511,5.612,12.511,12.51v56.772C204.227,178.586,198.614,184.198,191.716,184.198z M12.51,108.406
	c-3.59,0-6.51,2.92-6.51,6.51v56.772c0,3.59,2.92,6.51,6.51,6.51h179.206c3.59,0,6.511-2.92,6.511-6.51v-56.772
	c0-3.589-2.921-6.51-6.511-6.51h-31.802l-13.666,26.332c-0.124,0.331-0.307,0.642-0.544,0.916L128.4,155.618
	c-0.909,1.049-2.418,1.336-3.648,0.698c-1.231-0.639-1.864-2.039-1.53-3.385l6.315-25.444c0.053-0.292,0.149-0.578,0.289-0.847
	l9.463-18.233H12.51z M134.49,132.44l-2.432,9.798l6.611-7.629L134.49,132.44z M139.471,128.25l2.645,1.373l51.718-99.656
	l-5.575-2.894l-41.188,79.366c-0.044,0.118-0.095,0.234-0.153,0.348l-10.354,19.953L139.471,128.25z M81.343,162.882H23.041
	c-1.657,0-3-1.343-3-3s1.343-3,3-3h58.302c1.657,0,3,1.343,3,3S83,162.882,81.343,162.882z M81.343,145.846H23.041
	c-1.657,0-3-1.343-3-3s1.343-3,3-3h58.302c1.657,0,3,1.343,3,3S83,145.846,81.343,145.846z M81.343,128.812H23.041
	c-1.657,0-3-1.343-3-3s1.343-3,3-3h58.302c1.657,0,3,1.343,3,3S83,128.812,81.343,128.812z"/>
<g>
</g>
<g>
</g>
<g>
</g>
<g>
</g>
<g>
</g>
<g>
</g>
<g>
</g>
<g>
</g>
<g>
</g>
<g>
</g>
<g>
</g>
<g>
</g>
<g>
</g>
<g>
</g>
<g>
</g>
</svg>
