<?xml version="1.0" encoding="iso-8859-1"?>
<!-- Generator: Adobe Illustrator 19.0.0, SVG Export Plug-In . SVG Version: 6.00 Build 0)  -->
<svg version="1.1" id="Capa_1" xmlns="http://www.w3.org/2000/svg" xmlns:xlink="http://www.w3.org/1999/xlink" x="0px" y="0px"
	 viewBox="0 0 511.879 511.879" style="enable-background:new 0 0 511.879 511.879;" xml:space="preserve">
<g>
	<g>
		<path d="M255.943,0.001c-94.731,0-195.957,45.173-195.957,171.959c0,109.162,87.468,184.871,145.348,234.968
			c0.754,0.656,1.687,0.976,2.617,0.976c1.117,0,2.234-0.469,3.022-1.381c1.446-1.672,1.266-4.196-0.406-5.64
			C153.788,351.738,67.984,277.467,67.984,171.96c0-120.889,97.094-163.961,187.959-163.961c2.212,0,3.999-1.789,3.999-3.999
			S258.154,0.001,255.943,0.001z"/>
	</g>
</g>
<g>
	<g>
		<path d="M295.93,395.899c-6.951,0-11.996,3.366-11.996,8.006c0,2.211,1.787,3.999,3.998,3.999c1.914,0,3.515-1.343,3.906-3.14
			c0.584-0.359,2.006-0.867,4.092-0.867s3.508,0.508,4.094,0.867c0.39,1.797,1.99,3.14,3.904,3.14c2.211,0,4-1.788,4-3.999
			C307.928,399.265,302.881,395.899,295.93,395.899z"/>
	</g>
</g>
<g>
	<g>
		<path d="M279.934,395.899c-6.951,0-11.998,3.366-11.998,8.006c0,2.211,1.789,3.999,4,3.999c1.914,0,3.515-1.343,3.906-3.14
			c0.584-0.359,2.006-0.867,4.092-0.867s3.508,0.508,4.094,0.867c0.388,1.797,1.99,3.14,3.904,3.14c2.211,0,4-1.788,4-3.999
			C291.932,399.265,286.885,395.899,279.934,395.899z"/>
	</g>
</g>
<g>
	<g>
		<path d="M263.938,395.899c-6.948,0-11.994,3.366-11.994,8.006c0,2.211,1.789,3.999,3.999,3.999c1.915,0,3.514-1.343,3.905-3.14
			c0.586-0.359,2.008-0.867,4.09-0.867c2.086,0,3.508,0.508,4.092,0.867c0.39,1.797,1.992,3.14,3.906,3.14
			c2.211,0,3.998-1.788,3.998-3.999C275.934,399.265,270.889,395.899,263.938,395.899z"/>
	</g>
</g>
<g>
	<g>
		<path d="M247.945,395.899c-6.951,0-11.997,3.366-11.997,8.006c0,2.211,1.789,3.999,3.999,3.999c1.913,0,3.514-1.343,3.905-3.14
			c0.586-0.359,2.008-0.867,4.093-0.867c2.086,0,3.507,0.508,4.093,0.867c0.39,1.797,1.992,3.14,3.905,3.14
			c2.212,0,3.999-1.788,3.999-3.999C259.942,399.265,254.897,395.899,247.945,395.899z"/>
	</g>
</g>
<g>
	<g>
		<path d="M231.949,395.899c-6.955,0-12.001,3.366-12.001,8.006c0,2.211,1.789,3.999,3.999,3.999c1.913,0,3.514-1.343,3.905-3.14
			c0.586-0.359,2.008-0.867,4.097-0.867c2.086,0,3.507,0.508,4.093,0.867c0.39,1.797,1.991,3.14,3.905,3.14
			c2.211,0,3.999-1.788,3.999-3.999C243.946,399.265,238.9,395.899,231.949,395.899z"/>
	</g>
</g>
<g>
	<g>
		<path d="M215.949,395.899c-6.952,0-11.997,3.366-11.997,8.006c0,2.211,1.788,3.999,3.999,3.999c1.913,0,3.514-1.343,3.905-3.14
			c0.586-0.359,2.007-0.867,4.093-0.867s3.507,0.508,4.093,0.867c0.39,1.797,1.991,3.14,3.905,3.14c2.211,0,3.999-1.788,3.999-3.999
			C227.946,399.265,222.9,395.899,215.949,395.899z"/>
	</g>
</g>
<g>
	<g>
		<path d="M234.777,425.072l-16-15.996c-1.562-1.562-4.093-1.562-5.655,0c-1.562,1.561-1.562,4.093,0,5.655l16,15.996
			c0.781,0.781,1.804,1.171,2.827,1.171c1.024,0,2.047-0.39,2.828-1.171C236.339,429.165,236.339,426.634,234.777,425.072z"/>
	</g>
</g>
<g>
	<g>
		<path d="M298.758,409.076c-1.562-1.562-4.094-1.562-5.656,0l-15.996,15.996c-1.561,1.561-1.561,4.093,0,5.655
			c0.781,0.781,1.805,1.171,2.828,1.171c1.024,0,2.047-0.39,2.828-1.171l15.996-15.996
			C300.32,413.169,300.32,410.638,298.758,409.076z"/>
	</g>
</g>
<g>
	<g>
		<path d="M279.934,423.9h-47.985c-2.21,0-3.999,1.789-3.999,3.999c0,2.211,1.789,3.999,3.999,3.999h47.985c2.211,0,4-1.788,4-3.999
			C283.934,425.689,282.145,423.9,279.934,423.9z"/>
	</g>
</g>
<g>
	<g>
		<path d="M279.934,471.889h-47.985c-2.21,0-3.999,1.788-3.999,3.999v23.994c0,2.21,1.789,3.999,3.999,3.999
			c2.21,0,3.999-1.789,3.999-3.999v-19.995h39.986v19.995c0,2.21,1.789,3.999,4,3.999s4-1.789,4-3.999v-23.994
			C283.934,473.677,282.145,471.889,279.934,471.889z"/>
	</g>
</g>
<g>
	<g>
		<path d="M251.667,386.442c-0.559-1.414-55.713-142.185-55.713-222.479c0-72.131,19.6-123.303,53.78-140.389
			c1.976-0.988,2.776-3.39,1.788-5.366c-0.988-1.977-3.382-2.769-5.366-1.789c-37.53,18.765-58.201,71.163-58.201,147.543
			c0,81.801,53.972,219.589,56.268,225.416c0.621,1.569,2.129,2.53,3.722,2.53c0.489,0,0.985-0.086,1.469-0.279
			C251.468,390.824,252.476,388.497,251.667,386.442z"/>
	</g>
</g>
<g>
	<g>
		<path d="M227.19,385.565c-1.031-1.428-103.218-143.723-103.218-213.605c0-71.724,24.518-117.62,74.959-140.318
			c2.015-0.906,2.913-3.273,2.007-5.288c-0.914-2.019-3.277-2.917-5.288-2.007c-53.616,24.127-79.677,72.408-79.677,147.613
			c0,72.444,100.457,212.372,104.733,218.293c0.781,1.077,2.003,1.655,3.245,1.655c0.813,0,1.629-0.242,2.341-0.758
			C228.081,389.862,228.483,387.354,227.19,385.565z"/>
	</g>
</g>
<g>
	<g>
		<path d="M255.943,0c-2.21,0-3.999,1.789-3.999,3.999c0,2.21,1.789,3.999,3.999,3.999c90.866,0,187.952,43.072,187.952,163.961
			c0,105.515-85.807,179.778-142.584,228.923c-1.67,1.445-1.849,3.968-0.406,5.64c0.789,0.913,1.906,1.382,3.023,1.382
			c0.93,0,1.86-0.32,2.617-0.976c57.877-50.098,145.348-125.799,145.348-234.969C451.893,45.173,350.674,0,255.943,0z"/>
	</g>
</g>
<g>
	<g>
		<path d="M265.727,16.417c-1.969-0.98-4.379-0.187-5.367,1.789c-0.988,1.976-0.188,4.378,1.789,5.366
			c34.179,17.086,53.777,68.258,53.777,140.389c0,80.275-55.152,221.066-55.711,222.479c-0.808,2.055,0.199,4.382,2.254,5.187
			c0.485,0.195,0.981,0.281,1.469,0.281c1.594,0,3.102-0.961,3.716-2.532c2.297-5.827,56.27-143.615,56.27-225.416
			C323.924,87.58,303.256,35.182,265.727,16.417z"/>
	</g>
</g>
<g>
	<g>
		<path d="M316.239,24.347c-1.992-0.887-4.383-0.02-5.289,2.007c-0.906,2.012-0.008,4.382,2.008,5.288
			c50.433,22.698,74.951,68.597,74.951,140.318c0,69.866-102.188,212.176-103.219,213.605c-1.295,1.789-0.889,4.297,0.898,5.585
			c0.711,0.516,1.532,0.758,2.344,0.758c1.235,0,2.461-0.578,3.243-1.655c4.279-5.921,104.732-145.849,104.732-218.293
			C395.907,96.76,369.85,48.474,316.239,24.347z"/>
	</g>
</g>
<g>
	<g>
		<path d="M239.947,503.881c-2.207,0-3.999-1.797-3.999-3.999c0-2.21-1.789-3.999-3.999-3.999c-2.21,0-3.999,1.789-3.999,3.999
			c0,6.615,5.382,11.997,11.997,11.997c2.211,0,3.999-1.789,3.999-3.999C243.946,505.67,242.157,503.881,239.947,503.881z"/>
	</g>
</g>
<g>
	<g>
		<path d="M279.934,495.883c-2.211,0-4,1.789-4,3.999c0,2.202-1.795,3.999-3.998,3.999c-2.211,0-4,1.789-4,3.999
			c0,2.21,1.789,3.999,4,3.999c6.615,0,11.998-5.381,11.998-11.997C283.934,497.672,282.145,495.883,279.934,495.883z"/>
	</g>
</g>
<g>
	<g>
		<path d="M271.936,503.881h-31.989c-2.21,0-3.999,1.789-3.999,3.999c0,2.21,1.789,3.999,3.999,3.999h31.989
			c2.211,0,3.998-1.789,3.998-3.999C275.934,505.67,274.147,503.881,271.936,503.881z"/>
	</g>
</g>
<g>
	<g>
		<path d="M255.943,439.897c-8.256,0-11.997,15.34-11.997,19.994c0,6.616,5.382,11.998,11.997,11.998
			c6.612,0,11.993-5.382,11.993-11.998C267.936,455.237,264.203,439.897,255.943,439.897z M255.943,463.891
			c-2.206,0-3.999-1.797-3.999-4c0-3.304,2.285-9.739,3.999-11.66c1.712,1.921,3.995,8.356,3.995,11.66
			C259.938,462.094,258.147,463.891,255.943,463.891z"/>
	</g>
</g>
<g>
	<g>
		<path d="M231.949,431.898c-2.21,0-3.999,1.789-3.999,3.999v31.992c0,2.211,1.789,4,3.999,4c2.211,0,3.999-1.789,3.999-4v-31.992
			C235.948,433.687,234.159,431.898,231.949,431.898z"/>
	</g>
</g>
<g>
	<g>
		<path d="M279.934,431.898c-2.211,0-4,1.789-4,3.999v31.992c0,2.211,1.789,4,4,4s4-1.789,4-4v-31.992
			C283.934,433.687,282.145,431.898,279.934,431.898z"/>
	</g>
</g>
<g>
	<g>
		<path d="M247.945,479.887c-2.21,0-3.999,1.788-3.999,3.999v15.996c0,2.21,1.789,3.999,3.999,3.999
			c2.211,0,3.999-1.789,3.999-3.999v-15.996C251.944,481.675,250.155,479.887,247.945,479.887z"/>
	</g>
</g>
<g>
	<g>
		<path d="M263.938,479.887c-2.211,0-4,1.788-4,3.999v15.996c0,2.21,1.789,3.999,4,3.999c2.211,0,3.998-1.789,3.998-3.999v-15.996
			C267.936,481.675,266.149,479.887,263.938,479.887z"/>
	</g>
</g>
<g>
	<g>
		<path d="M271.936,487.885h-31.989c-2.21,0-3.999,1.788-3.999,3.999c0,2.21,1.789,3.999,3.999,3.999h31.989
			c2.211,0,3.998-1.789,3.998-3.999C275.934,489.673,274.147,487.885,271.936,487.885z"/>
	</g>
</g>
<g>
</g>
<g>
</g>
<g>
</g>
<g>
</g>
<g>
</g>
<g>
</g>
<g>
</g>
<g>
</g>
<g>
</g>
<g>
</g>
<g>
</g>
<g>
</g>
<g>
</g>
<g>
</g>
<g>
</g>
</svg>
