<?xml version="1.0" encoding="iso-8859-1"?>
<!-- Generator: Adobe Illustrator 19.0.0, SVG Export Plug-In . SVG Version: 6.00 Build 0)  -->
<svg version="1.1" id="Capa_1" xmlns="http://www.w3.org/2000/svg" xmlns:xlink="http://www.w3.org/1999/xlink" x="0px" y="0px"
	 viewBox="0 0 472 472" style="enable-background:new 0 0 472 472;" xml:space="preserve">
<g>
	
		<rect x="131.176" y="140.816" transform="matrix(-0.9795 0.2015 -0.2015 -0.9795 328.6153 493.7841)" style="fill:#999999;" width="16" height="245.603"/>
	
		<rect x="210.158" y="256.102" transform="matrix(-0.2012 0.9796 -0.9796 -0.2012 658.6549 -8.9179)" style="fill:#999999;" width="245.612" height="16.001"/>
</g>
<circle style="fill:#51ABD8;" cx="236" cy="136" r="136"/>
<path style="opacity:0.3;fill:#1588C9;enable-background:new    ;" d="M318.4,28c45.6,59.2,34.4,144.8-24.8,190.4
	c-48.8,37.6-116.8,37.6-165.6,0c45.6,60,131.2,71.2,190.4,25.6S389.6,112.8,344,53.6C336.8,44,328,35.2,318.4,28z"/>
<circle style="fill:#FFC117;" cx="236" cy="136" r="72"/>
<g>
	<path style="opacity:0.3;fill:#E97424;enable-background:new    ;" d="M280,79.2c24,31.2,18.4,76.8-13.6,100.8
		c-25.6,20-61.6,20-87.2,0c24,32,69.6,37.6,100.8,13.6s37.6-69.6,13.6-100.8C289.6,87.2,284.8,82.4,280,79.2L280,79.2z"/>
	<path style="fill:#E97424;" d="M236.8,176h-2.4c-12.8,0-23.2-10.4-23.2-23.2V152h16v0.8c0,4,3.2,7.2,7.2,7.2h2.4
		c4,0,7.2-3.2,7.2-7.2c0-2.4-1.6-4.8-4-6.4l-16-8c-8-4-12.8-12-12.8-20.8c0-12.8,10.4-23.2,23.2-23.2h2.4
		c12.8,0,23.2,10.4,23.2,23.2v2.4h-16v-0.8c0-4-3.2-7.2-7.2-7.2h-2.4c-4,0-7.2,3.2-7.2,7.2c0,2.4,1.6,4.8,4,6.4l16,8
		c8,4,12.8,12,12.8,20.8C260,165.6,249.6,176,236.8,176z"/>
	<rect x="228" y="88" style="fill:#E97424;" width="16" height="16"/>
	<rect x="228" y="168" style="fill:#E97424;" width="16" height="16"/>
</g>
<path style="fill:#F5F1EF;" d="M292,472H180c-4,0-7.2-2.4-8-6.4l-16-80c-0.8-4,1.6-8.8,6.4-9.6c0.8,0,0.8,0,1.6,0h144
	c4.8,0,8,3.2,8,8c0,0.8,0,0.8,0,1.6l-16,80C299.2,469.6,296,472,292,472z"/>
<g>
	<path style="fill:#51ABD8;" d="M164,376c-4.8,0-8,3.2-8,8c0,0.8,0,0.8,0,1.6l16,80c0.8,4,4,6.4,8,6.4h33.6l-19.2-96H164z"/>
	<polygon style="fill:#51ABD8;" points="226.4,376 245.6,472 277.6,472 258.4,376 	"/>
</g>
<path style="fill:#FFC117;" d="M268,352c0,17.6-14.4,32-32,32s-32-14.4-32-32c0-24,32-48,32-48S268,328,268,352z"/>
<rect x="228" y="344" style="fill:#E97424;" width="16" height="16"/>
<g>
	<path style="fill:#DEDAD8;" d="M209.6,450.4l4,21.6h32l-6.4-31.2C229.6,444.8,219.2,448,209.6,450.4z"/>
	<path style="fill:#DEDAD8;" d="M268.8,426.4l8.8,45.6H292c4,0,7.2-2.4,8-6.4l16-80c0-0.8,0-2.4,0-3.2
		C303.2,400,287.2,415.2,268.8,426.4z"/>
</g>
<g>
	<path style="opacity:0.3;fill:#1588C9;enable-background:new    ;" d="M170.4,456l1.6,9.6c0.8,4,4,6.4,8,6.4h33.6l-4-21.6
		C196.8,453.6,183.2,455.2,170.4,456z"/>
	<path style="opacity:0.3;fill:#1588C9;enable-background:new    ;" d="M239.2,440.8l6.4,31.2h32l-8.8-45.6
		C259.2,432,249.6,436.8,239.2,440.8z"/>
</g>
<path style="fill:#51ABD8;" d="M316,385.6c0.8-4-1.6-8.8-6.4-9.6c-0.8,0-0.8,0-1.6,0h-19.2l14.4,72L316,385.6z"/>
<path style="opacity:0.3;fill:#1588C9;enable-background:new    ;" d="M316,382.4c-6.4,8.8-12.8,16.8-20.8,24l8.8,42.4l12.8-62.4
	C316,384.8,316,383.2,316,382.4z"/>
<g>
</g>
<g>
</g>
<g>
</g>
<g>
</g>
<g>
</g>
<g>
</g>
<g>
</g>
<g>
</g>
<g>
</g>
<g>
</g>
<g>
</g>
<g>
</g>
<g>
</g>
<g>
</g>
<g>
</g>
</svg>
