<?xml version="1.0" encoding="iso-8859-1"?>
<!-- Generator: Adobe Illustrator 19.0.0, SVG Export Plug-In . SVG Version: 6.00 Build 0)  -->
<svg version="1.1" id="Layer_1" xmlns="http://www.w3.org/2000/svg" xmlns:xlink="http://www.w3.org/1999/xlink" x="0px" y="0px"
	 viewBox="0 0 491.52 491.52" style="enable-background:new 0 0 491.52 491.52;" xml:space="preserve">
<g>
	<rect x="214.216" y="413.85" style="fill:#EBF0F3;" width="4.424" height="34.76"/>
	<rect x="242.893" y="413.85" style="fill:#EBF0F3;" width="4.419" height="34.76"/>
	<rect x="273.203" y="413.85" style="fill:#EBF0F3;" width="4.419" height="34.76"/>
</g>
<rect x="213.366" y="449.434" style="fill:#F6C358;" width="63.529" height="8.305"/>
<polygon style="fill:#E56353;" points="277.165,402.315 277.375,415.612 214.215,415.612 214.423,402.315 196.339,370.549 
	295.252,370.549 "/>
<path style="fill:#DC8744;" d="M276.529,444.837h-62.804c-2.751,0-4.981,2.23-4.981,4.98c0,2.751,2.231,4.981,4.981,4.981h62.804
	c2.752,0,4.981-2.231,4.981-4.981C281.51,447.067,279.281,444.837,276.529,444.837z"/>
<path style="fill:#FCD462;" d="M213.364,457.723v29.438c0,2.408,1.953,4.359,4.359,4.359h54.807c2.408,0,4.36-1.952,4.36-4.359
	v-29.438H213.364z"/>
<g>
	<path style="fill:#E56353;" d="M117.303,177.006C117.303,79.248,174.814,0,245.76,0l0,0C156.1,0,83.417,79.247,83.417,177.006
		c0,6.772,0.904,13.799,2.355,20.957c10.234-4.545,20.887-8.691,31.959-12.352C117.523,182.72,117.303,179.824,117.303,177.006z"/>
	<path style="fill:#E56353;" d="M374.217,177.006c0,2.818-0.22,5.714-0.427,8.604c11.072,3.662,21.724,7.807,31.959,12.351
		c1.451-7.157,2.355-14.184,2.355-20.956C408.103,79.247,335.419,0,245.76,0C316.705,0,374.217,79.247,374.217,177.006z"/>
</g>
<g>
	<path style="fill:#EBF0F3;" d="M324.737,173.005c17.02,3.231,33.435,7.442,49.052,12.605c0.207-2.89,0.427-5.787,0.427-8.604
		C374.217,79.247,316.705,0,245.76,0C288.824,0,323.778,77.114,324.737,173.005z"/>
	<path style="fill:#EBF0F3;" d="M245.76,0L245.76,0c-70.946,0-128.457,79.248-128.457,177.006c0,2.818,0.22,5.714,0.427,8.604
		c15.618-5.164,32.032-9.374,49.052-12.605C167.742,77.115,202.697,0.001,245.76,0z"/>
</g>
<g>
	<path style="fill:#E56353;" d="M245.76,0c-43.063,0.001-78.018,77.115-78.977,173.005c17.147-3.255,34.916-5.481,53.177-6.564
		C220.764,73.629,231.99,0.001,245.76,0z"/>
	<path style="fill:#E56353;" d="M271.56,166.441c18.261,1.083,36.03,3.309,53.177,6.564C323.778,77.114,288.824,0,245.76,0l0,0
		C259.531,0,270.757,73.629,271.56,166.441z"/>
</g>
<path style="fill:#EBF0F3;" d="M219.96,166.441c8.509-0.505,17.1-0.813,25.8-0.813c8.701,0,17.292,0.308,25.8,0.813
	C270.757,73.629,259.531,0,245.76,0l0,0C231.99,0.001,220.764,73.629,219.96,166.441z"/>
<g>
	<path style="fill:#D15241;" d="M284.859,370.543h10.315c42.539-45.299,98.764-114.264,110.574-172.581
		c-10.234-4.544-20.887-8.689-31.959-12.351C369.441,246.278,320.932,321.997,284.859,370.543z"/>
	<path style="fill:#D15241;" d="M206.662,370.543c-36.073-48.546-84.583-124.264-88.931-184.932
		c-11.072,3.661-21.724,7.807-31.959,12.352c11.81,58.316,68.035,127.28,110.576,172.58H206.662z"/>
</g>
<g>
	<path style="fill:#E1E6E9;" d="M166.783,173.005c-17.02,3.232-33.434,7.442-49.052,12.605
		c4.349,60.668,52.858,136.386,88.931,184.932h15.032c-23.261-50.86-55.001-131.587-55.001-193.536
		C166.693,175.655,166.769,174.348,166.783,173.005z"/>
	<path style="fill:#E1E6E9;" d="M324.737,173.005c0.013,1.343,0.089,2.65,0.089,4.001c0,61.949-31.739,142.677-55.001,193.536
		h15.033c36.073-48.546,84.582-124.264,88.93-184.932C358.172,180.447,341.757,176.236,324.737,173.005z"/>
</g>
<g>
	<path style="fill:#D15241;" d="M219.96,166.441c-18.261,1.083-36.03,3.309-53.177,6.564c-0.013,1.343-0.089,2.65-0.089,4.001
		c0,61.949,31.74,142.677,55.001,193.536h16.19c-7.613-50.86-18.001-131.587-18.001-193.536
		C219.883,173.439,219.929,169.955,219.96,166.441z"/>
	<path style="fill:#D15241;" d="M324.737,173.005c-17.147-3.255-34.916-5.481-53.177-6.564c0.03,3.514,0.079,6.997,0.079,10.565
		c0,61.949-10.389,142.677-18.003,193.536h16.19c23.262-50.86,55.001-131.587,55.001-193.536
		C324.827,175.655,324.751,174.348,324.737,173.005z"/>
</g>
<path style="fill:#E1E6E9;" d="M271.56,166.441c-8.509-0.505-17.1-0.813-25.8-0.813c-8.701,0-17.292,0.308-25.8,0.813
	c-0.03,3.514-0.077,6.997-0.077,10.565c0,61.949,10.388,142.677,18.001,193.536h15.752c7.614-50.86,18.003-131.587,18.003-193.536
	C271.639,173.439,271.591,169.955,271.56,166.441z"/>
<g>
</g>
<g>
</g>
<g>
</g>
<g>
</g>
<g>
</g>
<g>
</g>
<g>
</g>
<g>
</g>
<g>
</g>
<g>
</g>
<g>
</g>
<g>
</g>
<g>
</g>
<g>
</g>
<g>
</g>
</svg>
