<?xml version="1.0" encoding="iso-8859-1"?>
<!-- Generator: Adobe Illustrator 19.0.0, SVG Export Plug-In . SVG Version: 6.00 Build 0)  -->
<svg version="1.1" id="Capa_1" xmlns="http://www.w3.org/2000/svg" xmlns:xlink="http://www.w3.org/1999/xlink" x="0px" y="0px"
	 viewBox="0 0 512 512" style="enable-background:new 0 0 512 512;" xml:space="preserve">
<polygon style="fill:#DCE4EC;" points="214.07,441.413 196.834,391.904 225.166,382.041 251.639,458.081 "/>
<polygon style="fill:#BDC4CB;" points="297.93,441.413 258.982,462.042 286.834,382.041 315.166,391.904 "/>
<path style="fill:#FF0019;" d="M398.904,260.249c17.04-26.791,26.27-57.312,26.69-88.261c0.396-29.137-6.914-58.232-21.142-84.144
	s-34.855-47.695-59.653-62.998C318.458,8.592,287.753,0,256.001,0l27.401,391.904h31.765L398.904,260.249z"/>
<path style="fill:#FF4E0A;" d="M113.096,260.249c-17.04-26.791-26.27-57.312-26.69-88.261c-0.396-29.137,6.914-58.232,21.142-84.144
	s34.855-47.695,59.653-62.998C193.542,8.592,224.247,0,255.999,0l-27.398,391.904h-31.768L113.096,260.249z"/>
<path style="fill:#DCE4EC;" d="M323.203,256.862C356.927,145.582,318.838,0,256.001,0l0,0l-20.016,160.333L256,391.904h27.401
	L323.203,256.862z"/>
<path style="fill:#F7F7F8;" d="M256,0c-62.838,0-100.926,145.582-67.202,256.862l39.804,135.042H256V0L256,0z"/>
<polygon style="fill:#782E1C;" points="297.93,512 297.93,441.413 256,441.413 235.984,476.706 256,512 "/>
<rect x="214.07" y="441.41" style="fill:#BD2B0F;" width="41.93" height="70.59"/>
<g>
</g>
<g>
</g>
<g>
</g>
<g>
</g>
<g>
</g>
<g>
</g>
<g>
</g>
<g>
</g>
<g>
</g>
<g>
</g>
<g>
</g>
<g>
</g>
<g>
</g>
<g>
</g>
<g>
</g>
</svg>
