<?xml version="1.0" encoding="iso-8859-1"?>
<!-- Generator: Adobe Illustrator 19.0.0, SVG Export Plug-In . SVG Version: 6.00 Build 0)  -->
<svg version="1.1" id="Layer_1" xmlns="http://www.w3.org/2000/svg" xmlns:xlink="http://www.w3.org/1999/xlink" x="0px" y="0px"
	 viewBox="0 0 491.52 491.52" style="enable-background:new 0 0 491.52 491.52;" xml:space="preserve">
<rect x="114.063" y="357.468" style="fill:#3EA69B;" width="263.373" height="134.042"/>
<path style="fill:#44C4A1;" d="M123.641,466.592v-84.185c8.483,0,15.36-6.877,15.36-15.36h213.517c0,8.483,6.877,15.36,15.36,15.36
	v84.185c-8.483,0-15.36,6.877-15.36,15.36H139.001C139.001,473.469,132.124,466.592,123.641,466.592z"/>
<g>
	<ellipse style="fill:#3EA69B;" cx="245.76" cy="424.509" rx="36.147" ry="45.732"/>
	<circle style="fill:#3EA69B;" cx="348.078" cy="424.509" r="8.177"/>
	<circle style="fill:#3EA69B;" cx="143.462" cy="424.509" r="8.177"/>
</g>
<path style="fill:#44C4A1;" d="M243.808,461.328v-6.486c-8.12-0.828-15.409-4.057-21.859-9.682l6.486-7.73
	c4.975,4.324,10.094,6.898,15.373,7.73v-17.238c-6.696-1.598-11.598-3.702-14.707-6.309c-3.109-2.607-4.664-6.472-4.664-11.595
	c0-5.123,1.786-9.313,5.372-12.574c3.586-3.258,8.25-5.033,13.999-5.329v-4.443h5.683v4.53c6.515,0.477,12.676,2.697,18.482,6.667
	l-5.777,8.174c-3.912-2.784-8.142-4.501-12.705-5.156v16.703h0.268c6.811,1.602,11.815,3.764,15.011,6.486
	c3.203,2.726,4.801,6.681,4.801,11.862c0,5.184-1.837,9.407-5.51,12.661c-3.673,3.261-8.525,5.036-14.57,5.333v6.396H243.808z
	 M237.539,403.977c-1.511,1.33-2.263,2.99-2.263,4.975c0,1.985,0.593,3.554,1.779,4.707c1.179,1.157,3.435,2.267,6.754,3.333
	v-15.373C241.14,401.858,239.05,402.643,237.539,403.977z M256.245,442.936c1.656-1.359,2.487-3.077,2.487-5.152
	c0-2.072-0.651-3.717-1.952-4.931c-1.309-1.215-3.738-2.354-7.289-3.42v15.991C252.333,445.131,254.582,444.299,256.245,442.936z"/>
<g>
	<rect x="170.547" y="323.031" style="fill:#64798A;" width="8.934" height="168.479"/>
	<rect x="312.023" y="323.031" style="fill:#64798A;" width="8.934" height="168.479"/>
</g>
<path style="fill:#EBF0F3;" d="M326.166,329.372c38.903-37.333,69.618-91.908,77.62-152.208
	C419.048,62.162,346.019,0.01,245.759,0.01C145.5,0.01,72.472,62.162,87.734,177.164c8.002,60.3,38.717,114.875,77.619,152.208
	H326.166z"/>
<path style="fill:#E56353;" d="M305.289,329.372c28.803-37.333,51.542-91.908,57.467-152.208
	C374.056,62.162,319.988,0.01,245.759,0.01c-74.228,0-128.295,62.152-116.996,177.153c5.925,60.3,28.664,114.875,57.466,152.208
	H305.289z"/>
<path style="fill:#EBF0F3;" d="M284.313,329.372c18.654-37.333,33.381-91.908,37.218-152.208
	C328.849,62.162,293.833,0.01,245.759,0.01c-48.073,0-83.088,62.152-75.771,177.153c3.837,60.3,18.564,114.875,37.217,152.208
	H284.313z"/>
<path style="fill:#E56353;" d="M261.473,329.372c7.602-37.333,13.605-91.908,15.169-152.208
	C279.624,62.162,265.353,0.01,245.76,0.01c-19.593,0-33.864,62.152-30.881,177.153c1.564,60.3,7.566,114.875,15.168,152.208H261.473
	z"/>
<path style="fill:#27A2DB;" d="M475.924,71.643c0.48-2.045,0.759-4.165,0.759-6.356c0-15.356-12.448-27.805-27.804-27.805
	c-8.97,0-16.926,4.266-22.01,10.86c-3.85-3.009-8.634-4.875-13.9-4.875c-12.533,0-22.693,10.16-22.693,22.692
	c0,1.63,0.188,3.214,0.515,4.746c-10.263,2.175-17.97,11.274-17.97,22.186c0,12.533,10.16,22.693,22.693,22.693h73.314
	c12.533,0,22.693-10.16,22.693-22.693C491.52,83.053,484.958,74.635,475.924,71.643z"/>
<path style="fill:#64798A;" d="M146.148,33.444c0.388-1.654,0.614-3.37,0.614-5.143c0-12.425-10.072-22.498-22.497-22.498
	c-7.258,0-13.695,3.452-17.809,8.787c-3.115-2.434-6.986-3.945-11.247-3.945c-10.141,0-18.361,8.221-18.361,18.361
	c0,1.319,0.152,2.6,0.416,3.84c-8.304,1.76-14.54,9.122-14.54,17.951c0,10.141,8.22,18.361,18.361,18.361h59.321
	c10.141,0,18.361-8.221,18.361-18.361C158.768,42.677,153.459,35.866,146.148,33.444z"/>
<path style="fill:#EBF0F3;" d="M83.425,241.733c0.388-1.654,0.614-3.37,0.614-5.143c0-12.425-10.072-22.498-22.497-22.498
	c-7.258,0-13.695,3.452-17.809,8.787c-3.115-2.434-6.986-3.945-11.247-3.945c-10.141,0-18.361,8.221-18.361,18.361
	c0,1.319,0.152,2.6,0.416,3.84C6.236,242.896,0,250.258,0,259.087c0,10.141,8.22,18.361,18.361,18.361h59.321
	c10.141,0,18.361-8.221,18.361-18.361C96.044,250.965,90.735,244.154,83.425,241.733z"/>
<path style="fill:#FFFFFF;" d="M233.14,160.653c0.388-1.654,0.614-3.37,0.614-5.143c0-12.425-10.072-22.498-22.497-22.498
	c-7.258,0-13.695,3.452-17.809,8.787c-3.115-2.434-6.986-3.945-11.247-3.945c-10.141,0-18.361,8.221-18.361,18.361
	c0,1.319,0.152,2.6,0.416,3.84c-8.304,1.76-14.54,9.122-14.54,17.951c0,10.141,8.22,18.361,18.361,18.361h59.321
	c10.141,0,18.361-8.221,18.361-18.361C245.76,169.886,240.451,163.074,233.14,160.653z"/>
<g>
</g>
<g>
</g>
<g>
</g>
<g>
</g>
<g>
</g>
<g>
</g>
<g>
</g>
<g>
</g>
<g>
</g>
<g>
</g>
<g>
</g>
<g>
</g>
<g>
</g>
<g>
</g>
<g>
</g>
</svg>
