<?xml version="1.0" encoding="iso-8859-1"?>
<!-- Generator: Adobe Illustrator 19.0.0, SVG Export Plug-In . SVG Version: 6.00 Build 0)  -->
<svg version="1.1" id="Capa_1" xmlns="http://www.w3.org/2000/svg" xmlns:xlink="http://www.w3.org/1999/xlink" x="0px" y="0px"
	 viewBox="0 0 496 496" style="enable-background:new 0 0 496 496;" xml:space="preserve">
<circle style="fill:#FFCB57;" cx="104" cy="136" r="96"/>
<path style="fill:#E56565;" d="M384,64c-26.472,0-48,21.528-48,48s21.528,48,48,48s48-21.528,48-48S410.472,64,384,64z M416,112
	c0,5.92-1.72,11.392-4.536,16.152l-43.616-43.616C372.608,81.72,378.08,80,384,80C401.648,80,416,94.352,416,112z M352,112
	c0-5.92,1.72-11.392,4.536-16.152l43.616,43.616C395.392,142.28,389.92,144,384,144C366.352,144,352,129.648,352,112z"/>
<g>
	<path style="fill:#3F3A34;" d="M304,176v16h192V32H288v-8c0-13.232-10.768-24-24-24s-24,10.768-24,24v256h-35.632l-56,64H0v128
		h140.688l24,24H228h92h12c15.44,0,28-12.56,28-28c0-7.84-3.256-14.912-8.464-20c5.208-5.088,8.464-12.16,8.464-20
		s-3.256-14.912-8.464-20c5.208-5.088,8.464-12.16,8.464-20s-3.256-14.912-8.464-20c5.208-5.088,8.464-12.16,8.464-20
		c0-15.44-12.56-28-28-28h-18.808c1.752-3.648,2.808-7.688,2.808-12c0-15.44-12.56-28-28-28V48h192v128H304z M264,16
		c4.408,0,8,3.592,8,8v8h-16v-8C256,19.592,259.592,16,264,16z M344,468c0,6.616-5.384,12-12,12h-12h-92c-6.616,0-12-5.384-12-12
		s5.384-12,12-12h104C338.616,456,344,461.384,344,468z M344,428c0,6.616-5.384,12-12,12H228c-6.616,0-12-5.384-12-12
		s5.384-12,12-12h104C338.616,416,344,421.384,344,428z M344,388c0,6.616-5.384,12-12,12H228c-6.616,0-12-5.384-12-12
		s5.384-12,12-12h104C338.616,376,344,381.384,344,388z M344,348c0,6.616-5.384,12-12,12H228c-3.832,0-7.224-1.928-9.44-4.832
		L235.592,336H288h44C338.616,336,344,341.384,344,348z M300,308c0,6.616-5.384,12-12,12h-59.592l-66.384,74.68l11.96,10.632
		l33.824-38.056c0.232,0.24,0.48,0.464,0.72,0.696C203.28,373.048,200,380.136,200,388c0,7.84,3.256,14.912,8.464,20
		c-5.208,5.088-8.464,12.16-8.464,20s3.256,14.912,8.464,20c-5.208,5.088-8.464,12.16-8.464,20c0,4.312,1.064,8.352,2.808,12
		h-31.496l-24-24H16v-96h139.632l56-64H288C294.616,296,300,301.384,300,308z M272,280h-16V48h16V280z"/>
	<path style="fill:#3F3A34;" d="M38.416,194.672C23.96,178.528,16,157.688,16,136c0-48.52,39.48-88,88-88
		c15.464,0,30.664,4.064,43.968,11.752l8.008-13.848C140.248,36.808,122.272,32,104,32C46.656,32,0,78.656,0,136
		c0,25.64,9.408,50.264,26.496,69.344L38.416,194.672z"/>
	<path style="fill:#3F3A34;" d="M192,136c0,48.52-39.48,88-88,88c-18.568,0-36.32-5.712-51.336-16.512l-9.344,12.984
		C61.072,233.248,82.056,240,104,240c57.344,0,104-46.656,104-104c0-29.544-12.64-57.8-34.664-77.52L162.664,70.4
		C181.304,87.088,192,111,192,136z"/>
	<path style="fill:#3F3A34;" d="M120,176H88c-8.824,0-16-7.176-16-16H56c0,17.648,14.352,32,32,32h8v16h16v-16h8
		c17.648,0,32-14.352,32-32s-14.352-32-32-32H88c-8.824,0-16-7.176-16-16s7.176-16,16-16h32c8.824,0,16,7.176,16,16h16
		c0-17.648-14.352-32-32-32h-8V64H96v16h-8c-17.648,0-32,14.352-32,32s14.352,32,32,32h32c8.824,0,16,7.176,16,16
		S128.824,176,120,176z"/>
	<rect x="96" y="272" style="fill:#3F3A34;" width="16" height="16"/>
	<rect x="144" y="272" style="fill:#3F3A34;" width="16" height="16"/>
	<rect x="48" y="272" style="fill:#3F3A34;" width="16" height="16"/>
</g>
<g>
</g>
<g>
</g>
<g>
</g>
<g>
</g>
<g>
</g>
<g>
</g>
<g>
</g>
<g>
</g>
<g>
</g>
<g>
</g>
<g>
</g>
<g>
</g>
<g>
</g>
<g>
</g>
<g>
</g>
</svg>
